<svg width="50" height="57" viewBox="0 0 50 57" fill="none" xmlns="http://www.w3.org/2000/svg">
<path d="M42.5112 10.81C37.8348 6.13418 31.6071 3.5625 24.9888 3.5625C11.3281 3.5625 0.212054 14.6508 0.212054 28.2773C0.212054 32.6303 1.35045 36.883 3.51562 40.6348L0 53.4375L13.1362 49.9975C16.7522 51.968 20.8259 53.0033 24.9777 53.0033H24.9888C38.6384 53.0033 50 41.915 50 28.2885C50 21.6867 47.1875 15.4857 42.5112 10.81ZM24.9888 48.8396C21.2835 48.8396 17.6562 47.8488 14.4978 45.9785L13.75 45.5332L5.95982 47.5705L8.03571 39.9891L7.54464 39.2098C5.47991 35.9367 4.39732 32.1627 4.39732 28.2773C4.39732 16.9553 13.6384 7.7373 25 7.7373C30.5022 7.7373 35.6696 9.8748 39.5536 13.7602C43.4375 17.6455 45.8259 22.8 45.8147 28.2885C45.8147 39.6217 36.3393 48.8396 24.9888 48.8396ZM36.2835 33.4541C35.6696 33.1424 32.6228 31.6506 32.0536 31.4502C31.4844 31.2387 31.0714 31.1385 30.6585 31.7619C30.2455 32.3853 29.0625 33.7658 28.6942 34.1889C28.3371 34.6008 27.9688 34.6564 27.3549 34.3447C23.7165 32.5301 21.3281 31.1051 18.9286 26.9971C18.2924 25.9061 19.5647 25.984 20.7478 23.6238C20.9487 23.2119 20.8482 22.8557 20.692 22.5439C20.5357 22.2322 19.2969 19.193 18.7835 17.9572C18.2812 16.7549 17.7679 16.9219 17.3884 16.8996C17.0312 16.8773 16.6183 16.8773 16.2054 16.8773C15.7924 16.8773 15.1228 17.0332 14.5536 17.6455C13.9844 18.2689 12.3884 19.7607 12.3884 22.8C12.3884 25.8393 14.6094 28.7783 14.9107 29.1902C15.2232 29.6021 19.2746 35.8365 25.4911 38.5195C29.4196 40.2117 30.9598 40.3564 32.9241 40.067C34.1183 39.8889 36.5848 38.5752 37.0982 37.1279C37.6116 35.6807 37.6116 34.4449 37.4554 34.1889C37.3103 33.9105 36.8973 33.7547 36.2835 33.4541Z" fill="#180E00"/>
</svg>
